<svg width="27" height="33" viewBox="0 0 27 33" fill="none" xmlns="http://www.w3.org/2000/svg">
<path d="M25.3988 33H1.60099C0.716828 33 0 32.3266 0 31.496V10.504C0 9.67341 0.716828 9 1.60099 9H25.399C26.2832 9 27 9.67341 27 10.504V31.496C27 32.3266 26.2832 33 25.3988 33Z" fill="url(#paint0_linear_1_24)"/>
<path d="M8.29087 0H18.4198L20.0932 1.67369H6.61719L8.29087 0Z" fill="url(#paint1_linear_1_24)"/>
<path d="M8.49118 8.52246H6.41602V10.5976H8.49118V8.52246Z" fill="url(#paint2_linear_1_24)"/>
<path d="M7.05486 9.18467C7.07405 9.18467 7.09324 9.17727 7.10804 9.16268C7.13723 9.13329 7.13723 9.0859 7.10804 9.05671L6.82532 8.774C6.79613 8.74461 6.74835 8.74461 6.71916 8.774C6.68997 8.80319 6.68997 8.85077 6.71916 8.87996L7.00187 9.16268C7.01627 9.17727 7.03566 9.18467 7.05486 9.18467Z" fill="url(#paint3_linear_1_24)"/>
<path d="M7.9569 9.90583C7.9275 9.87644 7.87972 9.87644 7.85093 9.90583C7.82173 9.93502 7.82134 9.98261 7.85073 10.0118L8.13344 10.2947C8.14804 10.3093 8.16743 10.3167 8.18662 10.3167C8.20582 10.3167 8.22501 10.3093 8.23961 10.2947C8.2688 10.2655 8.269 10.2179 8.23981 10.1887L7.9569 9.90583Z" fill="url(#paint4_linear_1_24)"/>
<path d="M7.03107 9.90583L6.74836 10.1887C6.71916 10.2181 6.71937 10.2655 6.74856 10.2947C6.76315 10.3093 6.78235 10.3167 6.80154 10.3167C6.82073 10.3167 6.83993 10.3093 6.85472 10.2947L7.13744 10.0118C7.16663 9.98261 7.16663 9.93502 7.13724 9.90583C7.10785 9.87644 7.06026 9.87644 7.03107 9.90583Z" fill="url(#paint5_linear_1_24)"/>
<path d="M7.5963 9.33943L7.49333 9.44239L7.39036 9.33943C7.36117 9.31024 7.31339 9.31024 7.28419 9.33943C7.2552 9.36882 7.2552 9.4162 7.28419 9.44539L7.38736 9.54856L7.31378 9.62214C7.28459 9.65133 7.28459 9.69892 7.31378 9.72811C7.32838 9.7427 7.34777 9.7501 7.36697 9.7501C7.38616 9.7501 7.40536 9.7427 7.42015 9.72811L7.49373 9.65453L7.56731 9.72811C7.5819 9.7427 7.6013 9.7501 7.62049 9.7501C7.63968 9.7501 7.65888 9.7427 7.67367 9.72811C7.70267 9.69892 7.70267 9.65133 7.67367 9.62214L7.60009 9.54856L7.70326 9.44539C7.73246 9.4162 7.73246 9.36862 7.70326 9.33943C7.67327 9.31004 7.62549 9.31004 7.5963 9.33943Z" fill="url(#paint6_linear_1_24)"/>
<path d="M8.26878 8.774C8.23959 8.74461 8.1918 8.74461 8.16261 8.774L7.8799 9.05671C7.85091 9.0859 7.85091 9.13349 7.8799 9.16268C7.89449 9.17727 7.91389 9.18467 7.93308 9.18467C7.95228 9.18467 7.97147 9.17727 7.98626 9.16268L8.26898 8.87996C8.29797 8.85077 8.29797 8.80339 8.26878 8.774Z" fill="url(#paint7_linear_1_24)"/>
<path d="M6.61597 1.67369V8.52318H8.28965V0L6.61597 1.67369Z" fill="url(#paint8_linear_1_24)"/>
<path d="M18.2183 10.5981H20.2935V8.52298H18.2183V10.5981Z" fill="url(#paint9_linear_1_24)"/>
<path d="M19.6544 9.18467C19.6352 9.18467 19.616 9.17727 19.6012 9.16268C19.572 9.13329 19.572 9.0859 19.6012 9.05671L19.884 8.774C19.9131 8.74461 19.9609 8.74461 19.9901 8.774C20.0191 8.80319 20.0191 8.85077 19.9901 8.87996L19.7074 9.16268C19.693 9.17727 19.6736 9.18467 19.6544 9.18467Z" fill="url(#paint10_linear_1_24)"/>
<path d="M18.7525 9.90583C18.7818 9.87644 18.8296 9.87644 18.8584 9.90583C18.8876 9.93502 18.8878 9.98261 18.8586 10.0118L18.5759 10.2947C18.5613 10.3093 18.5419 10.3167 18.5227 10.3167C18.5035 10.3167 18.4843 10.3093 18.4697 10.2947C18.4406 10.2655 18.4404 10.2179 18.4695 10.1887L18.7525 9.90583Z" fill="url(#paint11_linear_1_24)"/>
<path d="M19.677 9.90583L19.9597 10.1887C19.9891 10.2181 19.9889 10.2655 19.9595 10.2947C19.9449 10.3093 19.9257 10.3167 19.9065 10.3167C19.8873 10.3167 19.8681 10.3093 19.8533 10.2947L19.5706 10.0118C19.5414 9.98261 19.5416 9.93502 19.5708 9.90583C19.6002 9.87644 19.6478 9.87644 19.677 9.90583Z" fill="url(#paint12_linear_1_24)"/>
<path d="M19.1113 9.33943L19.2142 9.44239L19.3172 9.33943C19.3464 9.31024 19.3942 9.31024 19.4234 9.33943C19.4526 9.36882 19.4526 9.4162 19.4234 9.44539L19.3202 9.54856L19.3938 9.62214C19.423 9.65133 19.423 9.69892 19.3938 9.72811C19.3792 9.7427 19.3598 9.7501 19.3406 9.7501C19.3214 9.7501 19.3022 9.7427 19.2874 9.72811L19.2139 9.65453L19.1403 9.72811C19.1257 9.7427 19.1063 9.7501 19.0871 9.7501C19.0679 9.7501 19.0487 9.7427 19.0339 9.72811C19.0047 9.69892 19.0047 9.65133 19.0339 9.62214L19.1075 9.54856L19.0043 9.44539C18.9751 9.4162 18.9751 9.36862 19.0043 9.33943C19.0343 9.31004 19.0821 9.31004 19.1113 9.33943Z" fill="url(#paint13_linear_1_24)"/>
<path d="M18.4404 8.774C18.4696 8.74461 18.5174 8.74461 18.5465 8.774L18.8293 9.05671C18.8584 9.0859 18.8584 9.13349 18.8293 9.16268C18.8147 9.17727 18.7953 9.18467 18.7761 9.18467C18.7569 9.18467 18.7377 9.17727 18.7229 9.16268L18.4402 8.87996C18.4112 8.85077 18.4112 8.80339 18.4404 8.774Z" fill="url(#paint14_linear_1_24)"/>
<path d="M20.0919 1.67369V8.52318H18.4185V0L20.0919 1.67369Z" fill="url(#paint15_linear_1_24)"/>
<defs>
<linearGradient id="paint0_linear_1_24" x1="13.5" y1="9" x2="13.5" y2="33" gradientUnits="userSpaceOnUse">
<stop stop-color="#764BA2"/>
<stop offset="1" stop-color="#667EEA"/>
</linearGradient>
<linearGradient id="paint1_linear_1_24" x1="13.3552" y1="0" x2="13.3552" y2="1.67369" gradientUnits="userSpaceOnUse">
<stop stop-color="#764BA2"/>
<stop offset="1" stop-color="#667EEA"/>
</linearGradient>
<linearGradient id="paint2_linear_1_24" x1="7.4536" y1="8.52246" x2="7.4536" y2="10.5976" gradientUnits="userSpaceOnUse">
<stop stop-color="#764BA2"/>
<stop offset="1" stop-color="#667EEA"/>
</linearGradient>
<linearGradient id="paint3_linear_1_24" x1="6.9136" y1="8.75196" x2="6.9136" y2="9.18467" gradientUnits="userSpaceOnUse">
<stop stop-color="#764BA2"/>
<stop offset="1" stop-color="#667EEA"/>
</linearGradient>
<linearGradient id="paint4_linear_1_24" x1="8.04523" y1="9.88379" x2="8.04523" y2="10.3167" gradientUnits="userSpaceOnUse">
<stop stop-color="#764BA2"/>
<stop offset="1" stop-color="#667EEA"/>
</linearGradient>
<linearGradient id="paint5_linear_1_24" x1="6.94293" y1="9.88379" x2="6.94293" y2="10.3167" gradientUnits="userSpaceOnUse">
<stop stop-color="#764BA2"/>
<stop offset="1" stop-color="#667EEA"/>
</linearGradient>
<linearGradient id="paint6_linear_1_24" x1="7.4938" y1="9.31739" x2="7.4938" y2="9.7501" gradientUnits="userSpaceOnUse">
<stop stop-color="#764BA2"/>
<stop offset="1" stop-color="#667EEA"/>
</linearGradient>
<linearGradient id="paint7_linear_1_24" x1="8.07443" y1="8.75196" x2="8.07443" y2="9.18467" gradientUnits="userSpaceOnUse">
<stop stop-color="#764BA2"/>
<stop offset="1" stop-color="#667EEA"/>
</linearGradient>
<linearGradient id="paint8_linear_1_24" x1="7.45281" y1="0" x2="7.45281" y2="8.52318" gradientUnits="userSpaceOnUse">
<stop stop-color="#764BA2"/>
<stop offset="1" stop-color="#667EEA"/>
</linearGradient>
<linearGradient id="paint9_linear_1_24" x1="19.2559" y1="8.52298" x2="19.2559" y2="10.5981" gradientUnits="userSpaceOnUse">
<stop stop-color="#764BA2"/>
<stop offset="1" stop-color="#667EEA"/>
</linearGradient>
<linearGradient id="paint10_linear_1_24" x1="19.7956" y1="8.75196" x2="19.7956" y2="9.18467" gradientUnits="userSpaceOnUse">
<stop stop-color="#764BA2"/>
<stop offset="1" stop-color="#667EEA"/>
</linearGradient>
<linearGradient id="paint11_linear_1_24" x1="18.6641" y1="9.88379" x2="18.6641" y2="10.3167" gradientUnits="userSpaceOnUse">
<stop stop-color="#764BA2"/>
<stop offset="1" stop-color="#667EEA"/>
</linearGradient>
<linearGradient id="paint12_linear_1_24" x1="19.7652" y1="9.88379" x2="19.7652" y2="10.3167" gradientUnits="userSpaceOnUse">
<stop stop-color="#764BA2"/>
<stop offset="1" stop-color="#667EEA"/>
</linearGradient>
<linearGradient id="paint13_linear_1_24" x1="19.2138" y1="9.31739" x2="19.2138" y2="9.7501" gradientUnits="userSpaceOnUse">
<stop stop-color="#764BA2"/>
<stop offset="1" stop-color="#667EEA"/>
</linearGradient>
<linearGradient id="paint14_linear_1_24" x1="18.6348" y1="8.75196" x2="18.6348" y2="9.18467" gradientUnits="userSpaceOnUse">
<stop stop-color="#764BA2"/>
<stop offset="1" stop-color="#667EEA"/>
</linearGradient>
<linearGradient id="paint15_linear_1_24" x1="19.2552" y1="0" x2="19.2552" y2="8.52318" gradientUnits="userSpaceOnUse">
<stop stop-color="#764BA2"/>
<stop offset="1" stop-color="#667EEA"/>
</linearGradient>
</defs>
</svg>
