<svg width="401" height="332" viewBox="0 0 401 332" fill="none" xmlns="http://www.w3.org/2000/svg">
<path d="M177.477 220.21C226.367 220.21 266 171.721 266 111.907C266 52.0931 226.367 3.6042 177.477 3.6042C128.587 3.6042 88.9536 52.0931 88.9536 111.907C88.9536 171.721 128.587 220.21 177.477 220.21Z" stroke="#C4A3D1" stroke-width="7.2084" stroke-miterlimit="10"/>
<path d="M195.378 75.8862C197.48 84.6612 206.754 90.1052 216.287 90.1052C227.375 90.1052 237.615 82.7742 237.615 72.3312C237.615 61.8342 227.309 54.5572 216.287 54.5572C206.671 54.5572 197.456 60.1012 195.378 68.7762H187.849V58.1122C187.849 56.1492 186.258 54.5572 184.294 54.5572H162.966C161.003 54.5572 159.411 56.1482 159.411 58.1122V68.7762H148.747C146.784 68.7762 145.192 70.3672 145.192 72.3312C145.192 74.2942 146.783 75.8862 148.747 75.8862H159.411V90.1052H155.856C153.892 90.1052 152.301 91.6962 152.301 93.6602V104.935C148.163 106.403 145.192 110.354 145.192 114.988V115.328C145.174 115.353 145.157 115.378 145.139 115.404C136.536 120.428 130.973 129.724 130.973 140.108C130.973 150.501 136.55 159.796 145.139 164.812C145.157 164.837 145.174 164.863 145.192 164.888V165.228C145.192 171.108 149.976 175.892 155.856 175.892H191.403C197.283 175.892 202.067 171.108 202.067 165.228V164.887C202.085 164.863 202.101 164.837 202.12 164.812C210.71 159.795 216.286 150.499 216.286 140.108C216.286 130.019 210.985 120.581 202.12 115.404C202.102 115.378 202.085 115.353 202.067 115.328V114.988C202.067 110.354 199.096 106.403 194.958 104.935V93.6602C194.958 91.6962 193.367 90.1052 191.403 90.1052H187.848V75.8862H195.378ZM216.287 61.6672C224.128 61.6672 230.506 66.4512 230.506 72.3312C230.506 78.2112 224.128 82.9952 216.287 82.9952C208.446 82.9952 202.068 78.2112 202.068 72.3312C202.068 66.4512 208.446 61.6672 216.287 61.6672ZM187.849 97.2142V104.323H159.411V97.2142H187.849ZM209.178 140.108C209.178 142.657 208.727 145.137 207.887 147.454H183.687C182.181 147.454 180.838 148.404 180.336 149.824C179.334 152.659 176.639 154.564 173.63 154.564C170.622 154.564 167.926 152.66 166.924 149.824C166.422 148.404 165.079 147.454 163.572 147.454H139.374C138.533 145.137 138.083 142.657 138.083 140.108C138.083 137.559 138.534 135.079 139.374 132.762H163.572C165.079 132.762 166.422 131.812 166.924 130.392C167.926 127.557 170.621 125.652 173.63 125.652C176.639 125.652 179.334 127.556 180.336 130.392C180.838 131.812 182.181 132.762 183.688 132.762H207.886C208.727 135.079 209.178 137.559 209.178 140.108ZM197.923 159.018C197.356 159.325 196.883 159.781 196.554 160.336C195.889 161.464 194.959 162.2 194.959 163.783V165.228C194.959 167.188 193.365 168.783 191.404 168.783H155.857C153.897 168.783 152.302 167.188 152.302 165.228V163.783C152.302 162.207 151.372 161.462 150.707 160.336C150.379 159.781 149.906 159.324 149.338 159.017C147.171 157.844 145.26 156.331 143.656 154.563H161.314C163.821 158.899 168.498 161.672 173.631 161.672C178.764 161.672 183.441 158.896 185.948 154.561H203.606C202.001 156.328 200.09 157.845 197.923 159.018ZM197.923 121.199C200.091 122.372 202.002 123.885 203.605 125.653H185.947C183.44 121.317 178.763 118.544 173.63 118.544C168.497 118.544 163.82 121.317 161.313 125.653H143.655C145.258 123.886 147.17 122.372 149.337 121.199C150.082 120.795 150.353 120.489 151.729 118.368C152.102 117.791 152.301 117.119 152.301 116.433V114.988C152.301 113.028 153.896 111.433 155.856 111.433H191.403C193.364 111.433 194.958 113.028 194.958 114.988V116.433C194.959 118.022 196.804 120.593 197.923 121.199ZM166.521 90.1052V61.6672H180.74V90.1052H166.521Z" fill="#8D65A8"/>
<path d="M1.16207 243.296C1.16207 240.268 3.38057 238.754 7.81757 238.754C9.71914 238.754 13.3462 238.824 18.6988 238.965C24.6148 239.247 29.087 239.387 32.1154 239.387C34.5804 239.387 37.5736 239.247 41.0951 238.965C43.4896 238.824 45.0038 238.754 45.6377 238.754C49.5113 238.894 52.7862 239.599 55.4625 240.866C56.2372 241.219 56.871 241.641 57.364 242.134C57.857 242.627 58.1035 243.437 58.1035 244.564C58.1035 246.113 57.6105 247.451 56.6245 248.578C55.6385 249.635 54.4413 250.163 53.0327 250.163C51.4833 250.163 49.2295 249.952 46.2715 249.529C43.6657 249.036 41.3768 248.79 39.4048 248.79C37.5032 248.79 36.0594 248.825 35.0734 248.895C34.8621 251.219 34.7565 256.783 34.7565 265.587C34.7565 276.081 35.0734 286.715 35.7073 297.491L35.9186 300.555C35.9186 303.442 34.2635 304.886 30.9533 304.886C28.3475 304.886 26.5868 304.287 25.6712 303.09C24.7556 301.822 24.2978 299.921 24.2978 297.385C24.2978 292.385 24.157 286.152 23.8753 278.686C23.5936 272.489 23.4527 268.087 23.4527 265.481C23.4527 263.72 23.664 258.333 24.0866 249.318L11.7264 249.423C7.78235 249.423 5.03564 249.071 3.48621 248.367C1.93678 247.592 1.16207 245.902 1.16207 243.296ZM70.2046 237.063C72.6696 237.275 74.8177 237.944 76.6488 239.07C78.4799 240.127 79.3955 241.747 79.3955 243.93C79.3955 245.55 78.6208 246.853 77.0714 247.839C75.5924 248.754 73.7964 249.212 71.6836 249.212C69.6412 249.212 68.2326 248.684 67.4579 247.628C66.6832 246.571 66.2958 245.479 66.2958 244.353C66.2958 242.24 66.5071 240.479 66.9297 239.07C67.4227 237.662 68.5143 236.993 70.2046 237.063ZM78.656 283.863V286.927C78.656 289.673 78.7264 292.279 78.8673 294.744C79.0786 297.139 79.3251 299.569 79.6068 302.034C79.5364 302.738 79.0082 303.477 78.0222 304.252C77.0362 304.956 76.1558 305.308 75.3811 305.308C74.0429 305.308 72.6696 305.062 71.261 304.569C69.9229 304.006 69.113 303.336 68.8312 302.562C68.4087 300.308 68.1974 298.301 68.1974 296.54C68.1974 290.765 68.0213 284.286 67.6692 277.102C67.3875 270.763 67.2466 266.326 67.2466 263.791C67.2466 262.523 67.8805 261.432 69.1482 260.516C70.4159 259.6 71.754 259.143 73.1626 259.143C75.205 259.143 76.6136 259.6 77.3883 260.516C78.2334 261.432 78.656 262.875 78.656 264.847V283.863ZM158.507 301.188C157.451 299.216 156.782 297.033 156.5 294.639C156.218 292.174 156.077 288.793 156.077 284.497C156.077 280.412 155.514 276.855 154.387 273.827C153.26 270.798 150.936 269.284 147.415 269.284C146.076 269.284 144.738 269.707 143.4 270.552C142.132 271.327 141.182 272.313 140.548 273.51C139.562 275.412 138.893 277.489 138.541 279.743C138.188 281.926 138.012 284.462 138.012 287.349C138.012 289.18 138.118 291.047 138.329 292.948C138.329 293.512 138.365 294.427 138.435 295.695C138.576 296.892 138.646 297.984 138.646 298.97C138.646 303.196 137.167 305.308 134.209 305.308C130.336 305.308 128.293 303.266 128.082 299.181C128.082 296.294 128.117 294.744 128.188 294.533V289.99C128.188 287.455 128.082 284.99 127.871 282.595C127.659 280.201 127.413 278.405 127.131 277.207C126.497 274.883 125.652 273.087 124.596 271.82C123.61 270.552 122.025 269.918 119.842 269.918C116.743 269.918 114.243 271.256 112.341 273.933C111.003 276.045 110.123 278.616 109.7 281.644C109.278 285.518 108.961 288.582 108.749 290.835C108.609 293.019 108.538 295.554 108.538 298.442C108.538 300.484 108.186 302.139 107.482 303.407C106.848 304.675 105.615 305.308 103.784 305.308C102.446 305.308 101.037 304.956 99.5584 304.252C98.1499 303.477 97.4456 302.456 97.4456 301.188C97.4456 299.85 97.5864 298.512 97.8682 297.174C98.502 293.16 98.8189 285.976 98.8189 275.623C98.8189 273.933 98.3964 272.313 97.5512 270.763C96.7765 269.143 95.8257 268.333 94.6989 268.333C94.4172 268.333 93.8889 268.474 93.1142 268.756C92.4099 269.038 91.8817 269.179 91.5296 269.179C90.614 269.179 89.7689 268.756 88.9942 267.911C88.2899 267.066 87.9377 266.362 87.9377 265.798C87.9377 264.037 88.7829 262.558 90.4732 261.361C92.2339 260.093 94.065 259.46 95.9666 259.46C98.5724 259.46 100.791 260.269 102.622 261.889C104.453 263.509 105.862 265.763 106.848 268.65C108.468 265.833 110.651 263.58 113.398 261.889C116.144 260.129 119.208 259.248 122.589 259.248C124.701 259.248 126.392 259.53 127.659 260.093C128.998 260.586 130.089 261.326 130.934 262.312C131.779 263.227 132.871 264.636 134.209 266.538C135.97 264.284 138.224 262.523 140.97 261.255C143.788 259.988 146.675 259.354 149.633 259.354C153.155 259.354 156.324 260.798 159.141 263.685C161.958 266.502 163.86 269.777 164.846 273.51C165.339 275.412 165.585 279.074 165.585 284.497L166.008 290.624C166.36 294.286 167.557 296.505 169.6 297.28C171.994 297.984 173.191 298.723 173.191 299.498C173.191 301.188 172.769 302.421 171.924 303.196C171.29 303.618 170.41 304.076 169.283 304.569C168.156 305.062 167.275 305.308 166.642 305.308C162.838 305.308 160.127 303.935 158.507 301.188ZM179.617 280.694C179.617 276.398 180.567 272.841 182.469 270.024C184.371 267.136 187.012 264.425 190.392 261.889C191.378 261.185 193.033 260.586 195.357 260.093C197.682 259.53 199.724 259.248 201.485 259.248C203.598 259.248 205.816 259.706 208.14 260.622C210.535 261.467 212.472 262.453 213.951 263.58C216.556 265.481 218.352 267.7 219.338 270.235C220.324 272.7 220.817 275.658 220.817 279.109C220.817 280.588 219.972 282.032 218.282 283.44C216.662 284.779 214.901 285.448 213 285.448L208.985 285.342C206.943 285.342 204.02 285.412 200.217 285.553L197.999 285.659C196.449 285.8 195.287 285.87 194.512 285.87C193.385 285.87 191.836 285.729 189.864 285.448C190.146 288.758 191.378 291.364 193.562 293.265C195.745 295.096 198.104 296.012 200.64 296.012C205.077 296.012 208.175 295.132 209.936 293.371C211.415 292.314 212.401 291.645 212.894 291.364C213.387 291.082 214.162 290.941 215.218 290.941C216.345 290.941 217.331 291.469 218.176 292.526C219.021 293.582 219.444 294.639 219.444 295.695C219.444 296.892 218.705 298.125 217.226 299.392C215.817 300.59 213.88 301.857 211.415 303.196C210.077 303.759 208.246 304.252 205.922 304.675C203.598 305.097 201.661 305.308 200.111 305.308C197.646 305.308 194.9 304.604 191.871 303.196C188.843 301.717 186.589 300.097 185.11 298.336C183.631 296.575 182.328 294.075 181.201 290.835C180.145 287.596 179.617 284.215 179.617 280.694ZM200.64 277.841C205.64 277.841 209.302 277.665 211.626 277.313C211.486 275.271 210.852 273.616 209.725 272.348C208.598 271.01 207.049 269.883 205.077 268.967C204.443 268.686 203.879 268.474 203.386 268.333C202.893 268.193 202.33 268.122 201.696 268.122C198.456 268.122 195.71 269.003 193.456 270.763C191.273 272.524 189.97 274.778 189.547 277.524C193.069 277.736 196.766 277.841 200.64 277.841ZM242.644 288.511C242.644 291.188 243.032 293.265 243.806 294.744C244.651 296.153 245.708 296.857 246.976 296.857C247.68 296.857 248.349 296.822 248.983 296.751C249.617 296.611 250.25 296.54 250.884 296.54C251.589 296.54 252.187 296.892 252.68 297.597C253.244 298.301 253.525 299.076 253.525 299.921C253.525 301.611 252.715 302.949 251.096 303.935C249.546 304.851 247.433 305.308 244.757 305.308C242.855 305.308 240.919 304.745 238.947 303.618C237.045 302.421 235.46 300.59 234.193 298.125C232.925 295.589 232.291 292.455 232.291 288.723C232.291 280.694 232.432 273.897 232.714 268.333C233.066 261.713 233.242 253.367 233.242 243.296C233.242 240.127 233.418 237.908 233.77 236.641C234.193 235.655 234.862 234.915 235.777 234.422C236.763 233.859 237.785 233.577 238.841 233.577C239.897 233.577 240.813 233.753 241.588 234.105C242.433 234.457 242.996 235.021 243.278 235.796C243.56 236.641 243.736 237.486 243.806 238.331C243.947 239.106 244.018 240.233 244.018 241.712C244.018 244.599 243.912 247.381 243.701 250.057C243.56 253.297 243.489 255.656 243.489 257.135C242.926 269.531 242.644 279.989 242.644 288.511ZM259.885 281.011C259.885 278.475 260.343 276.116 261.259 273.933C262.174 271.679 263.512 269.355 265.273 266.96C267.034 264.566 269.464 262.699 272.563 261.361C275.661 259.953 279.042 259.248 282.704 259.248C285.521 259.248 288.233 259.847 290.839 261.044C293.515 262.171 295.91 263.58 298.022 265.27C298.304 265.763 298.797 266.678 299.501 268.017C300.206 269.284 300.699 270.446 300.98 271.503C301.333 272.559 301.509 273.651 301.509 274.778C301.509 279.496 299.783 282.666 296.332 284.286C292.881 285.835 288.515 286.61 283.232 286.61C277.95 286.61 273.654 286.258 270.344 285.553C270.485 286.891 270.837 288.23 271.4 289.568C271.964 290.906 272.633 291.927 273.408 292.631C274.816 293.969 276.19 294.85 277.528 295.272C278.936 295.625 280.803 295.801 283.127 295.801C286.648 295.801 289.395 295.132 291.367 293.793C293.198 292.596 294.607 291.997 295.593 291.997C296.931 291.997 297.952 292.42 298.656 293.265C299.361 294.04 299.713 295.061 299.713 296.329C299.713 299.005 297.987 301.188 294.536 302.879C291.156 304.569 287.317 305.414 283.021 305.414C279.641 305.414 276.295 304.815 272.985 303.618C269.675 302.421 267.034 300.731 265.062 298.547C263.724 296.294 262.526 293.547 261.47 290.307C260.414 287.067 259.885 283.969 259.885 281.011ZM283.127 267.911C281.577 267.911 279.958 268.193 278.267 268.756C276.647 269.249 275.38 270.024 274.464 271.08C273.337 272.277 272.492 273.369 271.929 274.355C271.436 275.341 271.119 276.574 270.978 278.053C271.753 278.053 272.492 278.088 273.196 278.158C273.901 278.229 274.57 278.299 275.204 278.37C278.302 278.651 280.627 278.792 282.176 278.792C285.275 278.792 287.634 278.334 289.254 277.419C290.944 276.503 291.79 275.271 291.79 273.721C291.79 272.242 290.839 270.904 288.937 269.707C287.106 268.51 285.169 267.911 283.127 267.911ZM341.698 280.694C344.515 282.314 346.487 283.933 347.614 285.553C348.74 287.103 349.304 289.145 349.304 291.681C349.304 294.216 348.564 296.47 347.085 298.442C345.606 300.343 343.705 301.822 341.381 302.879C339.69 303.653 337.577 304.252 335.042 304.675C332.577 305.097 330.64 305.308 329.232 305.308C326.767 305.308 324.09 304.851 321.203 303.935C318.315 303.02 315.85 301.717 313.808 300.026C311.836 298.336 310.85 296.364 310.85 294.11C310.85 292.702 311.308 291.61 312.223 290.835C313.139 289.99 314.336 289.568 315.815 289.568C317.012 289.568 318.28 290.413 319.618 292.103C320.956 293.582 322.506 294.709 324.266 295.484C326.098 296.258 327.894 296.646 329.654 296.646C336.345 296.646 339.69 295.132 339.69 292.103C339.69 291.469 339.479 290.871 339.056 290.307C338.634 289.673 338.247 289.251 337.894 289.039C337.261 288.546 336.38 288.124 335.253 287.772C334.126 287.42 333 287.138 331.873 286.927C330.746 286.645 329.901 286.434 329.337 286.293C328.774 286.152 327.577 285.905 325.745 285.553C323.985 285.201 322.294 284.602 320.675 283.757C317.998 282.49 315.815 280.94 314.125 279.109C312.505 277.278 311.695 274.919 311.695 272.031C311.695 270.411 312.082 268.791 312.857 267.171C313.702 265.481 314.829 264.213 316.238 263.368C318.35 262.03 320.675 261.009 323.21 260.305C325.745 259.6 328.105 259.248 330.288 259.248C332.049 259.248 334.021 259.424 336.204 259.776C338.458 260.129 340.078 260.622 341.064 261.255C342.895 262.241 344.233 263.263 345.078 264.319C345.923 265.376 346.346 266.714 346.346 268.333C346.346 269.108 346.17 269.883 345.818 270.658C345.465 271.362 345.043 271.855 344.55 272.137C343.423 272.559 342.437 272.77 341.592 272.77C340.958 272.77 340.43 272.665 340.007 272.454C339.585 272.172 339.197 271.89 338.845 271.608C338.563 271.327 338.387 271.151 338.317 271.08C337.401 270.094 336.38 269.319 335.253 268.756C334.126 268.193 332.471 267.911 330.288 267.911C328.88 267.911 327.506 268.122 326.168 268.545C324.9 268.897 323.914 269.355 323.21 269.918C322.647 270.341 322.259 270.728 322.048 271.08C321.837 271.362 321.731 271.749 321.731 272.242C321.731 274.214 323.703 275.658 327.647 276.574C331.661 277.489 333.774 277.982 333.986 278.053C334.408 278.193 335.57 278.546 337.472 279.109C339.444 279.672 340.852 280.201 341.698 280.694ZM388.835 281.116C389.398 281.468 390.49 282.137 392.11 283.123C393.8 284.039 394.927 285.131 395.49 286.398C396.054 287.666 396.335 289.427 396.335 291.681C396.335 294.216 395.596 296.47 394.117 298.442C392.638 300.343 390.736 301.822 388.412 302.879C386.722 303.653 384.644 304.252 382.179 304.675C379.785 305.097 377.883 305.308 376.475 305.308C375.066 305.308 373.235 305.097 370.981 304.675C368.798 304.252 367.284 303.865 366.439 303.513C364.255 302.245 362.354 300.695 360.734 298.864C359.184 297.033 358.41 295.167 358.41 293.265C358.41 291.857 358.868 290.765 359.783 289.99C360.699 289.145 361.896 288.723 363.375 288.723C364.079 288.723 364.819 289.004 365.593 289.568C366.368 290.061 366.896 290.589 367.178 291.152C367.953 292.983 369.256 294.357 371.087 295.272C372.918 296.188 374.784 296.646 376.686 296.646C379.151 296.646 381.44 296.258 383.553 295.484C385.666 294.639 386.722 293.512 386.722 292.103C386.722 291.469 386.546 290.976 386.194 290.624C385.912 290.202 385.489 289.779 384.926 289.356C383.94 288.652 382.461 288.089 380.489 287.666C378.517 287.173 377.249 286.856 376.686 286.715C373.798 286.081 370.981 285.131 368.234 283.863C365.488 282.525 363.305 280.94 361.685 279.109C360.065 277.278 359.255 274.919 359.255 272.031C359.255 270.129 359.959 268.157 361.368 266.115C362.776 264.002 364.361 262.523 366.122 261.678C367.389 261.185 369.502 260.657 372.46 260.093C375.489 259.53 377.531 259.248 378.587 259.248C380.207 259.248 381.968 259.424 383.87 259.776C385.771 260.058 387.215 260.551 388.201 261.255C390.103 262.382 391.652 263.58 392.849 264.847C394.047 266.045 394.645 267.418 394.645 268.967C394.645 269.742 394.469 270.587 394.117 271.503C393.765 272.348 393.342 272.876 392.849 273.087C391.793 273.58 390.56 273.827 389.152 273.827C388.518 273.827 387.99 273.651 387.567 273.299C387.215 272.947 386.722 272.383 386.088 271.608C385.313 270.411 384.574 269.707 383.87 269.496C383.024 269.284 381.792 269.038 380.172 268.756C378.552 268.404 377.461 268.228 376.897 268.228C375.277 268.228 373.587 268.686 371.826 269.601C370.136 270.517 369.291 271.573 369.291 272.77C369.291 273.404 369.537 273.897 370.03 274.249C370.594 274.602 371.157 274.919 371.721 275.2C372.355 275.482 372.777 275.658 372.988 275.728C374.467 276.433 376.087 277.031 377.848 277.524C379.679 278.017 380.806 278.334 381.229 278.475C385.032 279.391 387.567 280.271 388.835 281.116Z" fill="#8D65A8"/>
</svg>
