<svg width="269" height="269" viewBox="0 0 269 269" fill="none" xmlns="http://www.w3.org/2000/svg">
<path d="M45.8088 235.615C42.2947 232.528 38.942 229.262 35.7649 225.832C34.4335 224.394 33.1329 222.927 31.8651 221.43C11.9873 197.988 0 167.644 0 134.5C0 60.2183 60.2183 0 134.5 0C208.782 0 269 60.2183 269 134.5C269 167.644 257.012 197.988 237.135 221.43C235.867 222.927 234.566 224.394 233.235 225.832C230.058 229.262 226.705 232.528 223.191 235.615H45.8088Z" fill="#C5C5C5"/>
<path d="M223.192 235.613C199.516 256.396 168.478 268.998 134.501 268.998C100.524 268.998 69.4863 256.396 45.8103 235.613C65.7262 203.999 98.0315 183.444 134.501 183.444C170.971 183.444 203.276 203.999 223.192 235.613Z" fill="#151515"/>
<path d="M134.502 160.968C164.503 160.968 188.825 136.646 188.825 106.644C188.825 76.6426 164.503 52.3213 134.502 52.3213C104.5 52.3213 80.1784 76.6426 80.1784 106.644C80.1784 136.646 104.5 160.968 134.502 160.968Z" fill="#151515"/>
</svg>
