<svg width="35" height="35" viewBox="0 0 35 35" fill="none" xmlns="http://www.w3.org/2000/svg">
<g clip-path="url(#clip0_1_19)">
<path d="M5.96026 30.6562C5.50303 30.2546 5.06681 29.8297 4.65342 29.3833C4.48019 29.1962 4.31098 29.0053 4.14602 28.8106C1.55969 25.7605 0 21.8124 0 17.5C0 7.8351 7.83509 0 17.5 0C27.1649 0 35 7.8351 35 17.5C35 21.8124 33.4403 25.7605 30.8539 28.8106C30.689 29.0053 30.5197 29.1962 30.3465 29.3833C29.9332 29.8297 29.4969 30.2546 29.0397 30.6562H5.96026Z" fill="url(#paint0_linear_1_19)"/>
<path d="M29.0396 30.6559C25.9591 33.3601 21.9207 34.9997 17.4999 34.9997C13.0791 34.9997 9.04072 33.3601 5.96021 30.6559C8.55149 26.5426 12.7548 23.8682 17.4999 23.8682C22.245 23.8682 26.4483 26.5427 29.0396 30.6559Z" fill="#151515"/>
<path d="M17.5002 20.9438C21.4038 20.9438 24.5683 17.7793 24.5683 13.8757C24.5683 9.9721 21.4038 6.80762 17.5002 6.80762C13.5966 6.80762 10.4321 9.9721 10.4321 13.8757C10.4321 17.7793 13.5966 20.9438 17.5002 20.9438Z" fill="#151515"/>
</g>
<defs>
<linearGradient id="paint0_linear_1_19" x1="17.5" y1="0" x2="17.5" y2="30.6562" gradientUnits="userSpaceOnUse">
<stop stop-color="#764BA2"/>
<stop offset="1" stop-color="#667EEA"/>
</linearGradient>
<clipPath id="clip0_1_19">
<rect width="35" height="35" fill="white"/>
</clipPath>
</defs>
</svg>
