<svg width="30" height="31" viewBox="0 0 30 31" fill="none" xmlns="http://www.w3.org/2000/svg">
<path d="M29.6042 27.5063C29.3878 27.7825 29.0826 27.9414 28.7641 27.9753C28.4455 28.0092 28.1137 27.918 27.8441 27.6935L21.1988 22.165L21.145 21.6591L22.2688 20.2187L22.7662 20.1658L29.4115 25.6945C29.9508 26.1431 30.0371 26.9543 29.6042 27.5063Z" fill="#C5C5C5"/>
<path d="M22.7987 20.0633L21.083 22.2221L18.2195 19.8718L19.8685 17.6583L22.7987 20.0633Z" fill="#C5C5C5"/>
<path d="M12.6385 23.12C11.239 23.2689 9.85111 23.131 8.51332 22.7103C7.22144 22.304 6.03084 21.6524 4.97458 20.7737C3.91832 19.8949 3.04942 18.833 2.392 17.6176C1.71123 16.3589 1.28836 14.9902 1.13514 13.5496C0.981924 12.109 1.10747 10.682 1.50827 9.30827C1.89532 7.98171 2.52145 6.76085 3.36924 5.67955C4.21706 4.5983 5.24398 3.71087 6.4215 3.04196C7.64087 2.34928 8.96873 1.92259 10.3682 1.77375C11.7677 1.62491 13.1556 1.76276 14.4934 2.18347C15.7852 2.58975 16.9758 3.24133 18.0321 4.12009C19.0883 4.99887 19.9573 6.06074 20.6147 7.27622C21.2954 8.53488 21.7183 9.90355 21.8715 11.3442C22.0247 12.7848 21.8992 14.2118 21.4984 15.5855C21.1114 16.9121 20.4852 18.1329 19.6374 19.2142C18.7896 20.2955 17.7627 21.1829 16.5852 21.8518C15.3658 22.5445 14.0379 22.9712 12.6385 23.12ZM10.4827 2.85047C9.22398 2.98434 8.03016 3.36784 6.9344 3.9903C5.87579 4.59166 4.95239 5.3897 4.18984 6.36228C3.42727 7.33484 2.8642 8.43268 2.51623 9.62528C2.15605 10.8597 2.04331 12.1426 2.18112 13.4384C2.31893 14.7341 2.69898 15.9646 3.31075 17.0957C3.90177 18.1884 4.68316 19.1433 5.63323 19.9337C6.58328 20.7241 7.6539 21.3101 8.8153 21.6753C10.0175 22.0534 11.2652 22.1772 12.524 22.0433C13.7827 21.9095 14.9765 21.526 16.0723 20.9035C17.1309 20.3022 18.0543 19.5041 18.8168 18.5315C19.5794 17.559 20.1425 16.4611 20.4904 15.2685C20.8506 14.0341 20.9634 12.7512 20.8255 11.4554C20.6877 10.1597 20.3077 8.9292 19.6959 7.79813C19.1049 6.7054 18.3235 5.75055 17.3734 4.96013C16.4234 4.16972 15.3528 3.58373 14.1914 3.21848C12.9892 2.84042 11.7414 2.7166 10.4827 2.85047Z" fill="#C5C5C5"/>
</svg>
